<svg width="192" height="192" viewBox="0 0 192 192" fill="none" xmlns="http://www.w3.org/2000/svg">
<path d="M192 96C192 42.9797 149.02 0 95.9985 0C42.9801 0 0 42.9797 0 96C0 149.017 42.9801 192 95.9985 192C149.02 192 192 149.017 192 96Z" fill="url(#paint0_linear_863_121306)"/>
<path d="M9.60037 96C9.60038 143.719 48.284 182.4 96.0019 182.4C143.72 182.4 182.4 143.719 182.4 96C182.4 48.2815 143.72 9.60002 96.0019 9.60003C48.2839 9.60003 9.60037 48.2815 9.60037 96V96Z" fill="url(#paint1_linear_863_121306)"/>
<path d="M172.8 96C172.8 53.5837 138.416 19.2 95.999 19.2C53.5843 19.2 19.2002 53.5837 19.2002 96C19.2002 138.413 53.5843 172.8 95.999 172.8C138.416 172.8 172.8 138.413 172.8 96Z" fill="url(#paint2_linear_863_121306)"/>
<path d="M172.8 96C172.8 53.5837 138.416 19.2 95.999 19.2C53.5843 19.2 19.2002 53.5837 19.2002 96C19.2002 138.413 53.5843 172.8 95.999 172.8C138.416 172.8 172.8 138.413 172.8 96Z" fill="white" fill-opacity="0.64"/>
<mask id="mask0_863_121306" style="mask-type:alpha" maskUnits="userSpaceOnUse" x="28" y="28" width="136" height="136">
<path d="M163.2 95.9999C163.2 58.888 133.112 28.7999 95.9985 28.7999C58.8877 28.7999 28.7998 58.888 28.7998 95.9999C28.7998 133.112 58.8877 163.2 95.9985 163.2C133.112 163.2 163.2 133.112 163.2 95.9999Z" fill="url(#paint3_linear_863_121306)"/>
<path d="M163.2 95.9999C163.2 58.888 133.112 28.7999 95.9985 28.7999C58.8877 28.7999 28.7998 58.888 28.7998 95.9999C28.7998 133.112 58.8877 163.2 95.9985 163.2C133.112 163.2 163.2 133.112 163.2 95.9999Z" fill="white"/>
</mask>
<g mask="url(#mask0_863_121306)">
<g clip-path="url(#clip0_863_121306)">
<rect width="134.4" height="134.4" transform="translate(28.7998 28.7999)" fill="white"/>
<path d="M96.0008 163.2C133.115 163.2 163.201 133.114 163.201 95.9998C163.201 58.8863 133.115 28.7998 96.0008 28.7998C58.8872 28.7998 28.8008 58.8863 28.8008 95.9998C28.8008 133.114 58.8872 163.2 96.0008 163.2Z" fill="white"/>
<path fill-rule="evenodd" clip-rule="evenodd" d="M69.5508 74.5434C69.5508 75.1127 69.5687 75.6722 69.6044 76.2213C68.4063 75.7826 67.1218 75.5291 65.7724 75.5291C61.3378 75.5291 58.0678 78.2351 56.1533 81.2549C54.2383 84.2753 53.2871 88.0946 53.2871 91.9807C53.2871 95.8646 54.2372 99.6992 56.1351 102.736C58.0223 105.756 61.286 108.549 65.7724 108.549C66.1111 108.549 66.4456 108.533 66.7755 108.502C65.7705 110.638 64.9858 112.816 64.5321 115.01C63.556 119.732 64.1139 124.615 67.2372 129.009C68.8304 131.25 70.732 133.024 73.0271 134.098C75.3718 135.197 77.7331 135.381 79.896 135.059C83.6043 134.507 87.0614 132.347 89.3594 130.913C89.4423 130.861 89.5237 130.81 89.604 130.76C89.6387 130.738 89.6728 130.717 89.7069 130.696C91.148 129.799 92.2521 129.119 93.2633 128.636C94.286 128.148 94.7469 128.099 94.8498 128.099C96.4679 128.099 97.4013 128.272 97.9982 128.444C98.6146 128.62 99.085 128.847 99.9854 129.304L100.051 129.337C101.031 129.835 102.415 130.537 104.321 131.058C106.259 131.586 108.526 131.877 111.442 131.877C118.711 131.877 124.345 127.426 126.725 121.378C128.504 116.854 128.449 111.587 126.349 106.561C130.311 106.337 133.455 103.975 135.444 101.178C137.555 98.2109 138.713 94.3658 138.713 90.3143C138.713 86.2766 137.564 82.3658 135.528 79.3261C133.548 76.3684 130.195 73.5577 125.735 73.5577C124.006 73.5577 122.428 73.9814 121.024 74.6732C121.016 74.2866 120.998 73.8965 120.97 73.5032C120.927 69.193 119.618 65.2435 117.4 62.2411C115.194 59.2532 111.723 56.8011 107.5 56.8011C102.701 56.8011 98.9632 59.6646 96.6558 63.0258C96.1681 63.7366 95.726 64.4912 95.3318 65.282C94.9433 64.4947 94.5049 63.7394 94.0193 63.0265C91.8001 59.7702 88.1093 56.8011 83.1859 56.8011C78.839 56.8011 75.3294 59.4674 73.1438 62.549C70.8865 65.7319 69.5508 69.937 69.5508 74.5434ZM92.2217 74.5433C92.2217 80.7129 89.4292 85.8786 83.1864 85.8786C79.0127 85.8786 74.808 82.4288 74.808 74.5433C74.808 67.315 79.0127 62.058 83.1864 62.058C88.4432 62.058 92.2217 68.3737 92.2217 74.5433ZM65.7723 103.292C69.9459 103.292 74.4792 98.15 74.4792 91.9807C74.4792 85.8109 69.9459 80.7861 65.7723 80.7861C61.5988 80.7861 58.544 85.8109 58.544 91.9807C58.544 98.15 61.5988 103.292 65.7723 103.292ZM102.364 124.616C104.298 125.597 106.313 126.62 111.442 126.62C121.298 126.62 126.664 114.792 119.327 104.771C112.592 95.5712 104.213 87.1701 94.3568 87.85C87.1281 88.3487 81.0056 95.7355 74.9715 104.771C69.7146 112.643 67.267 119.978 71.5214 125.963C76.3795 132.797 81.7936 129.428 86.9286 126.232C89.6933 124.512 92.3771 122.842 94.8493 122.842C98.8682 122.842 100.581 123.711 102.364 124.616ZM107.499 86.0429C111.672 86.0429 116.37 81.6072 115.713 73.7219C115.713 66.9864 111.672 62.058 107.499 62.058C102.406 62.058 98.2991 68.1364 98.2991 75.3647C98.2991 81.5342 103.325 86.0429 107.499 86.0429ZM133.455 90.3143C133.455 96.4836 129.908 101.321 125.734 101.321C121.561 101.321 117.685 96.4836 117.685 90.3143C117.685 84.1445 121.561 78.8146 125.734 78.8146C129.908 78.8146 133.455 84.1445 133.455 90.3143Z" fill="#E16B15"/>
</g>
</g>
<defs>
<linearGradient id="paint0_linear_863_121306" x1="192" y1="-0.000765816" x2="-17.6528" y2="21.7357" gradientUnits="userSpaceOnUse">
<stop stop-color="#E16B15"/>
<stop offset="1" stop-color="#99490E"/>
</linearGradient>
<linearGradient id="paint1_linear_863_121306" x1="9.60046" y1="182.401" x2="198.288" y2="162.838" gradientUnits="userSpaceOnUse">
<stop stop-color="#E16B15"/>
<stop offset="1" stop-color="#99490E"/>
</linearGradient>
<linearGradient id="paint2_linear_863_121306" x1="172.8" y1="19.1993" x2="5.07793" y2="36.5885" gradientUnits="userSpaceOnUse">
<stop stop-color="#E16B15"/>
<stop offset="1" stop-color="#99490E"/>
</linearGradient>
<linearGradient id="paint3_linear_863_121306" x1="36.7057" y1="43.6235" x2="152.329" y2="147.388" gradientUnits="userSpaceOnUse">
<stop stop-color="#00E599"/>
<stop offset="1" stop-color="#00AF92"/>
</linearGradient>
<clipPath id="clip0_863_121306">
<rect width="134.4" height="134.4" fill="white" transform="translate(28.7998 28.7999)"/>
</clipPath>
</defs>
</svg>
