<svg width="192" height="192" viewBox="0 0 192 192" fill="none" xmlns="http://www.w3.org/2000/svg">
<path d="M192 96C192 42.9797 149.02 0 95.9985 0C42.9801 0 0 42.9797 0 96C0 149.017 42.9801 192 95.9985 192C149.02 192 192 149.017 192 96Z" fill="url(#paint0_linear_863_121345)"/>
<path d="M9.60037 96C9.60038 143.719 48.284 182.4 96.0019 182.4C143.72 182.4 182.4 143.719 182.4 96C182.4 48.2815 143.72 9.60002 96.0019 9.60003C48.2839 9.60003 9.60037 48.2815 9.60037 96V96Z" fill="url(#paint1_linear_863_121345)"/>
<path d="M172.8 96C172.8 53.5837 138.416 19.2 95.999 19.2C53.5843 19.2 19.2002 53.5837 19.2002 96C19.2002 138.413 53.5843 172.8 95.999 172.8C138.416 172.8 172.8 138.413 172.8 96Z" fill="url(#paint2_linear_863_121345)"/>
<path d="M172.8 96C172.8 53.5837 138.416 19.2 95.999 19.2C53.5843 19.2 19.2002 53.5837 19.2002 96C19.2002 138.413 53.5843 172.8 95.999 172.8C138.416 172.8 172.8 138.413 172.8 96Z" fill="white" fill-opacity="0.64"/>
<mask id="mask0_863_121345" style="mask-type:alpha" maskUnits="userSpaceOnUse" x="28" y="28" width="136" height="136">
<path d="M163.2 95.9999C163.2 58.888 133.112 28.7999 95.9985 28.7999C58.8877 28.7999 28.7998 58.888 28.7998 95.9999C28.7998 133.112 58.8877 163.2 95.9985 163.2C133.112 163.2 163.2 133.112 163.2 95.9999Z" fill="url(#paint3_linear_863_121345)"/>
<path d="M163.2 95.9999C163.2 58.888 133.112 28.7999 95.9985 28.7999C58.8877 28.7999 28.7998 58.888 28.7998 95.9999C28.7998 133.112 58.8877 163.2 95.9985 163.2C133.112 163.2 163.2 133.112 163.2 95.9999Z" fill="white"/>
</mask>
<g mask="url(#mask0_863_121345)">
<g clip-path="url(#clip0_863_121345)">
<rect width="134.4" height="134.4" transform="translate(28.7998 28.7999)" fill="white"/>
<path fill-rule="evenodd" clip-rule="evenodd" d="M96.0008 28.7998C133.117 28.7998 163.201 58.8836 163.201 95.9998C163.201 133.116 133.117 163.2 96.0008 163.2C58.8846 163.2 28.8008 133.116 28.8008 95.9998C28.8008 58.8836 58.8846 28.7998 96.0008 28.7998Z" fill="white"/>
<path d="M62.7954 96.0097L62.8485 115.503L79.4081 125.25V136.662L53.1573 121.263V90.3093L62.7954 96.0097ZM62.7954 76.5162V87.8756L53.1514 82.1693V70.8099L62.7954 65.1036L72.4866 70.8099L62.7954 76.5162ZM86.3237 70.8099L95.9677 65.1036L105.659 70.8099L95.9677 76.5162L86.3237 70.8099Z" fill="#F0B90B"/>
<path d="M69.7646 111.463V100.05L79.4087 105.756V117.116L69.7646 111.463ZM86.3242 129.338L95.9683 135.044L105.66 129.338V140.697L95.9683 146.403L86.3242 140.697V129.338ZM119.491 70.8099L129.135 65.1036L138.826 70.8099V82.1693L129.135 87.8756V76.5162L119.491 70.8099ZM129.135 115.503L129.188 96.0097L138.832 90.3034V121.257L112.581 136.657V125.244L129.135 115.503Z" fill="#F0B90B"/>
<path d="M122.222 111.468L112.575 117.121V105.762L122.222 100.056V111.468Z" fill="#F0B90B"/>
<path d="M122.219 80.5536L122.272 91.9662L105.665 101.713V121.254L96.0214 126.907L86.3774 121.254V101.713L69.7706 91.9662V80.5536L79.4559 74.8473L95.9624 84.6413L112.569 74.8473L122.26 80.5536H122.219ZM69.7646 61.066L95.9683 45.613L122.219 61.066L112.575 66.7723L95.9683 56.9783L79.4087 66.7723L69.7646 61.066Z" fill="#F0B90B"/>
</g>
</g>
<defs>
<linearGradient id="paint0_linear_863_121345" x1="192" y1="-0.000765816" x2="-17.6528" y2="21.7357" gradientUnits="userSpaceOnUse">
<stop stop-color="#F0B90B"/>
<stop offset="1" stop-color="#A37E07"/>
</linearGradient>
<linearGradient id="paint1_linear_863_121345" x1="9.60046" y1="182.401" x2="198.288" y2="162.838" gradientUnits="userSpaceOnUse">
<stop stop-color="#F0B90B"/>
<stop offset="1" stop-color="#A37E07"/>
</linearGradient>
<linearGradient id="paint2_linear_863_121345" x1="172.8" y1="19.1993" x2="5.07793" y2="36.5885" gradientUnits="userSpaceOnUse">
<stop stop-color="#F0B90B"/>
<stop offset="1" stop-color="#A37E07"/>
</linearGradient>
<linearGradient id="paint3_linear_863_121345" x1="36.7057" y1="43.6235" x2="152.329" y2="147.388" gradientUnits="userSpaceOnUse">
<stop stop-color="#00E599"/>
<stop offset="1" stop-color="#00AF92"/>
</linearGradient>
<clipPath id="clip0_863_121345">
<rect width="134.4" height="134.4" fill="white" transform="translate(28.7998 28.7999)"/>
</clipPath>
</defs>
</svg>
