<svg width="192" height="192" viewBox="0 0 192 192" fill="none" xmlns="http://www.w3.org/2000/svg">
<path d="M192 96C192 42.9797 149.02 0 95.9985 0C42.9801 0 0 42.9797 0 96C0 149.017 42.9801 192 95.9985 192C149.02 192 192 149.017 192 96Z" fill="url(#paint0_linear_863_120713)"/>
<path d="M9.60037 96C9.60038 143.719 48.284 182.4 96.0019 182.4C143.72 182.4 182.4 143.719 182.4 96C182.4 48.2815 143.72 9.60002 96.0019 9.60003C48.2839 9.60003 9.60037 48.2815 9.60037 96V96Z" fill="url(#paint1_linear_863_120713)"/>
<path d="M172.8 96C172.8 53.5837 138.416 19.2 95.999 19.2C53.5843 19.2 19.2002 53.5837 19.2002 96C19.2002 138.413 53.5843 172.8 95.999 172.8C138.416 172.8 172.8 138.413 172.8 96Z" fill="url(#paint2_linear_863_120713)"/>
<path d="M172.8 96C172.8 53.5837 138.416 19.2 95.999 19.2C53.5843 19.2 19.2002 53.5837 19.2002 96C19.2002 138.413 53.5843 172.8 95.999 172.8C138.416 172.8 172.8 138.413 172.8 96Z" fill="white" fill-opacity="0.64"/>
<mask id="mask0_863_120713" style="mask-type:alpha" maskUnits="userSpaceOnUse" x="28" y="28" width="136" height="136">
<path d="M163.2 96C163.2 58.8881 133.112 28.8 95.9985 28.8C58.8877 28.8 28.7998 58.8881 28.7998 96C28.7998 133.112 58.8877 163.2 95.9985 163.2C133.112 163.2 163.2 133.112 163.2 96Z" fill="url(#paint3_linear_863_120713)"/>
<path d="M163.2 96C163.2 58.8881 133.112 28.8 95.9985 28.8C58.8877 28.8 28.7998 58.8881 28.7998 96C28.7998 133.112 58.8877 163.2 95.9985 163.2C133.112 163.2 163.2 133.112 163.2 96Z" fill="white"/>
</mask>
<g mask="url(#mask0_863_120713)">
<g clip-path="url(#clip0_863_120713)">
<rect width="134.4" height="134.4" transform="translate(28.7998 28.8)" fill="white"/>
<path d="M95.9998 163.2C133.113 163.2 163.2 133.114 163.2 96C163.2 58.8865 133.113 28.8 95.9998 28.8C58.8863 28.8 28.7998 58.8865 28.7998 96C28.7998 133.114 58.8863 163.2 95.9998 163.2Z" fill="white"/>
<path fill-rule="evenodd" clip-rule="evenodd" d="M95.8022 140.625C82.7238 140.615 72.1889 137.477 64.8281 131.84C57.379 126.136 53.4272 118.041 53.4272 108.881C53.4272 100.055 57.3703 93.6902 61.8319 89.3882C65.3284 86.0169 69.1868 83.8577 71.8734 82.6157C71.2659 80.7512 70.5078 78.3102 69.8296 75.7891C68.9223 72.4153 68.032 68.4571 68.032 65.5566C68.032 62.1234 68.7806 58.6755 70.7989 55.9963C72.9312 53.1658 76.1413 51.6494 80.0032 51.6494C83.0213 51.6494 85.5838 52.7689 87.5899 54.7003C89.5075 56.5463 90.7837 58.9982 91.6649 61.5539C93.2133 66.0446 93.8163 71.6868 93.9854 77.3173H97.6845C97.8536 71.6868 98.4564 66.0446 100.005 61.5539C100.886 58.9982 102.162 56.5463 104.08 54.7003C106.086 52.7689 108.648 51.6494 111.667 51.6494C115.529 51.6494 118.739 53.1658 120.871 55.9963C122.889 58.6755 123.638 62.1234 123.638 65.5566C123.638 68.4571 122.748 72.4153 121.84 75.7891C121.162 78.3102 120.404 80.7512 119.796 82.6157C122.483 83.8577 126.341 86.0169 129.838 89.3882C134.3 93.6902 138.242 100.055 138.242 108.881C138.242 118.041 134.291 126.136 126.842 131.84C119.481 137.477 108.946 140.615 95.8677 140.625H95.8022Z" fill="#633001"/>
<path d="M80.003 54.9143C74.3466 54.9143 71.7428 59.1772 71.7428 65.0727C71.7428 69.7586 74.7682 79.1435 76.0095 82.797C76.2886 83.6186 75.8499 84.519 75.0499 84.8376C70.5166 86.6433 57.1382 93.255 57.1382 108.397C57.1382 124.347 70.7336 136.374 95.8048 136.393C95.8147 136.393 95.8247 136.393 95.8347 136.393C95.8447 136.393 95.8546 136.393 95.8647 136.393C120.936 136.374 134.531 124.347 134.531 108.397C134.531 93.255 121.153 86.6433 116.62 84.8376C115.819 84.519 115.381 83.6186 115.66 82.797C116.901 79.1435 119.926 69.7586 119.926 65.0727C119.926 59.1772 117.323 54.9143 111.666 54.9143C103.524 54.9143 101.495 66.5655 101.35 79.0702C101.34 79.905 100.672 80.5823 99.8459 80.5823H91.8236C90.997 80.5823 90.3291 79.905 90.3194 79.0702C90.1747 66.5655 88.145 54.9143 80.003 54.9143Z" fill="#D1884F"/>
<path d="M95.8647 131.283C77.4437 131.283 57.17 121.322 57.1382 108.427C57.1382 108.447 57.1382 108.467 57.1382 108.487C57.1382 124.45 70.7553 136.483 95.8647 136.483C120.974 136.483 134.591 124.45 134.591 108.487C134.591 108.467 134.591 108.447 134.591 108.427C134.559 121.322 114.286 131.283 95.8647 131.283Z" fill="#FEDC90"/>
<path d="M85.6283 104.466C85.6283 108.819 83.5916 111.087 81.0793 111.087C78.5669 111.087 76.5303 108.819 76.5303 104.466C76.5303 100.112 78.5669 97.8448 81.0793 97.8448C83.5916 97.8448 85.6283 100.112 85.6283 104.466Z" fill="#633001"/>
<path d="M115.198 104.466C115.198 108.819 113.162 111.087 110.649 111.087C108.137 111.087 106.1 108.819 106.1 104.466C106.1 100.112 108.137 97.8448 110.649 97.8448C113.162 97.8448 115.198 100.112 115.198 104.466Z" fill="#633001"/>
</g>
</g>
<defs>
<linearGradient id="paint0_linear_863_120713" x1="192" y1="-0.000765816" x2="-17.6528" y2="21.7357" gradientUnits="userSpaceOnUse">
<stop stop-color="#D1884F"/>
<stop offset="1" stop-color="#8E5C36"/>
</linearGradient>
<linearGradient id="paint1_linear_863_120713" x1="9.60046" y1="182.401" x2="198.288" y2="162.838" gradientUnits="userSpaceOnUse">
<stop stop-color="#D1884F"/>
<stop offset="1" stop-color="#8E5C36"/>
</linearGradient>
<linearGradient id="paint2_linear_863_120713" x1="172.8" y1="19.1993" x2="5.07793" y2="36.5885" gradientUnits="userSpaceOnUse">
<stop stop-color="#D1884F"/>
<stop offset="1" stop-color="#8E5C36"/>
</linearGradient>
<linearGradient id="paint3_linear_863_120713" x1="36.7057" y1="43.6236" x2="152.329" y2="147.388" gradientUnits="userSpaceOnUse">
<stop stop-color="#00E599"/>
<stop offset="1" stop-color="#00AF92"/>
</linearGradient>
<clipPath id="clip0_863_120713">
<rect width="134.4" height="134.4" fill="white" transform="translate(28.7998 28.8)"/>
</clipPath>
</defs>
</svg>
