<svg width="192" height="192" viewBox="0 0 192 192" fill="none" xmlns="http://www.w3.org/2000/svg">
<path d="M192 96C192 42.9797 149.02 0 95.9985 0C42.9801 0 0 42.9797 0 96C0 149.017 42.9801 192 95.9985 192C149.02 192 192 149.017 192 96Z" fill="url(#paint0_linear_863_120797)"/>
<path d="M9.60037 96C9.60038 143.719 48.284 182.4 96.0019 182.4C143.72 182.4 182.4 143.719 182.4 96C182.4 48.2815 143.72 9.60002 96.0019 9.60003C48.2839 9.60003 9.60037 48.2815 9.60037 96V96Z" fill="url(#paint1_linear_863_120797)"/>
<path d="M172.8 96C172.8 53.5837 138.416 19.2 95.999 19.2C53.5843 19.2 19.2002 53.5837 19.2002 96C19.2002 138.413 53.5843 172.8 95.999 172.8C138.416 172.8 172.8 138.413 172.8 96Z" fill="url(#paint2_linear_863_120797)"/>
<path d="M172.8 96C172.8 53.5837 138.416 19.2 95.999 19.2C53.5843 19.2 19.2002 53.5837 19.2002 96C19.2002 138.413 53.5843 172.8 95.999 172.8C138.416 172.8 172.8 138.413 172.8 96Z" fill="white" fill-opacity="0.32"/>
<mask id="mask0_863_120797" style="mask-type:alpha" maskUnits="userSpaceOnUse" x="28" y="28" width="136" height="136">
<path d="M163.2 95.9999C163.2 58.888 133.112 28.7999 95.9985 28.7999C58.8877 28.7999 28.7998 58.888 28.7998 95.9999C28.7998 133.112 58.8877 163.2 95.9985 163.2C133.112 163.2 163.2 133.112 163.2 95.9999Z" fill="url(#paint3_linear_863_120797)"/>
<path d="M163.2 95.9999C163.2 58.888 133.112 28.7999 95.9985 28.7999C58.8877 28.7999 28.7998 58.888 28.7998 95.9999C28.7998 133.112 58.8877 163.2 95.9985 163.2C133.112 163.2 163.2 133.112 163.2 95.9999Z" fill="white"/>
</mask>
<g mask="url(#mask0_863_120797)">
<g clip-path="url(#clip0_863_120797)">
<rect width="134.4" height="134.4" transform="translate(28.7998 28.7999)" fill="white"/>
<rect width="134.4" height="134.4" transform="translate(28.7998 28.7999)" fill="url(#paint4_linear_863_120797)"/>
<path d="M101.643 85.6492C101.643 84.5653 102.508 83.6982 103.589 83.6982C104.508 83.6982 105.265 84.3486 105.482 85.2157C105.536 85.3782 105.536 85.4866 105.536 85.6492C105.536 86.6247 104.833 87.3834 103.914 87.546C103.806 87.546 103.751 87.546 103.643 87.546C102.508 87.6002 101.643 86.7331 101.643 85.6492ZM83.1517 51.4531L82.8273 53.4041H89.6939C89.6939 53.8918 89.4776 54.3253 89.2073 54.6505C88.8829 54.9757 88.4503 55.1383 87.9637 55.1383H82.5029L80.3402 67.5486H86.0173C86.0173 68.0363 85.801 68.4699 85.5307 68.795C85.2063 69.1202 84.7737 69.2828 84.2871 69.2828H80.0158L77.8531 81.6931H82.3948C82.3948 82.1808 82.1785 82.6144 81.9081 82.9395C81.5837 83.2647 81.1512 83.4273 80.6646 83.4273H77.5827L75.42 95.8376H78.7722C78.7722 96.3253 78.556 96.7589 78.2856 97.0841C77.9612 97.4092 77.5287 97.5718 77.0421 97.5718H75.1497L72.9329 110.036H75.0956C75.0956 110.524 74.8794 110.958 74.609 111.283C74.2846 111.608 73.8521 111.771 73.3655 111.771H72.6626C72.5004 111.987 72.5004 112.692 72.4463 113.017C72.3382 113.505 72.2841 114.047 72.176 114.534C72.0138 115.564 71.7975 116.54 71.5812 117.569C71.1487 119.52 70.608 121.417 70.0673 123.368C68.6075 128.841 69.7429 134.369 73.2033 138.813C76.6095 143.311 81.8541 145.858 87.4771 145.858H104.508C111.375 145.858 117.539 142.065 120.621 135.941C122.459 132.31 123 128.137 122.189 124.181C121.648 121.58 120.512 119.195 118.999 117.081C117.485 114.914 115.7 113.017 113.862 111.174C113.862 111.174 104.779 102.07 104.725 102.016C104.184 101.474 103.589 100.986 103.157 100.39C103.049 100.227 102.995 100.119 102.94 99.9563C102.832 99.306 103.86 98.9266 104.346 98.7099C104.941 98.4931 105.536 98.1679 106.076 97.8428C107.158 97.1383 108.077 96.217 108.78 95.1331C109.212 94.537 109.429 93.8866 109.753 93.1821L109.861 93.0195C109.861 93.0195 109.915 92.9112 109.861 92.9112C109.915 92.8028 109.969 92.6944 109.969 92.586C110.077 92.2066 110.131 91.8273 110.24 91.4479C110.24 91.4479 110.24 91.4479 110.24 91.3937C106.185 88.0879 107.752 84.457 108.077 83.8608C108.023 83.8066 107.969 83.8066 107.969 83.7524L107.807 83.5357C107.698 83.4273 107.536 83.2647 107.428 83.1563C107.374 83.1021 107.32 83.0479 107.266 83.0479C107.104 82.8853 106.887 82.7228 106.671 82.5602C106.671 82.5602 106.617 82.5602 106.617 82.506C104.995 81.3137 102.94 80.6092 100.724 80.7176C100.507 80.7176 100.291 80.7176 100.075 80.7718C97.1012 81.097 94.4519 82.9395 93.0461 85.5408C90.2886 90.635 91.9647 97.0841 95.1547 101.528C96.6146 103.587 98.3988 105.321 100.129 107.056C102.075 109.007 104.076 110.958 106.076 112.909L108.401 115.239L108.347 115.293C108.401 115.293 111.754 119.954 112.024 120.279C113.862 122.989 115.43 125.373 114.998 128.896C114.835 130.088 114.511 131.28 113.916 132.364C112.132 135.941 108.672 138.054 104.725 138.054H87.6934C84.4493 138.054 81.5297 136.591 79.5292 134.044C77.5827 131.497 76.9339 128.245 77.7449 125.102C78.7182 121.363 79.7454 117.84 80.5024 114.047C80.989 111.662 81.4215 109.332 81.9081 106.947C82.5029 103.804 83.1517 100.661 83.7464 97.5176C84.4493 93.8866 85.1522 90.3099 85.8551 86.6789C86.612 82.8853 87.369 79.0918 88.0719 75.2982C88.7747 71.6131 89.4776 67.9821 90.2346 64.297C90.8834 61.0453 91.4781 57.8479 92.1269 54.5963C92.6135 52.1034 93.1002 49.5563 93.5868 47.0634C93.8571 45.6002 94.1815 44.0828 94.4519 42.6195C94.4519 42.5654 94.6141 41.8066 94.6141 41.8066C88.7747 42.1318 84.1249 46.0879 83.1517 51.4531Z" fill="white"/>
<path d="M114.024 81.6389C112.889 81.6389 111.754 82.0724 110.78 82.6686C110.456 82.8853 110.077 83.1021 109.753 83.3189C109.266 83.6441 108.942 83.8608 108.564 84.0234C108.455 84.0234 108.131 84.186 107.969 84.2402C107.915 84.186 107.861 84.1318 107.861 84.1318C107.59 84.7279 106.022 88.3047 110.023 91.6647C110.023 91.6105 110.023 91.5563 110.023 91.5021C110.51 91.2853 111.051 91.1228 111.591 91.0144C111.916 90.9602 112.294 90.906 112.673 90.906L116.403 90.7434C116.944 90.7434 117.431 90.8518 117.971 90.906C117.917 90.8518 117.809 90.7434 117.755 90.6892C117.485 90.4724 117.214 90.2557 116.944 90.0389C116.782 89.9305 116.674 89.8763 116.511 89.7679C115.7 89.3344 114.835 89.0092 113.916 88.7924C113.808 88.7924 113.7 88.7382 113.592 88.7382C113.43 88.6841 113.267 88.6841 113.105 88.6299C112.132 88.4673 111.159 88.4673 110.186 88.4673H110.023C109.861 88.4673 109.699 88.4673 109.537 88.4673C109.483 88.4673 109.429 88.4673 109.375 88.4673C109.537 88.2505 109.699 88.0337 109.861 87.817C110.24 87.3292 110.618 86.8957 111.105 86.4621C112.132 85.4866 113.376 84.7279 114.673 84.1318C115.971 83.5357 117.377 83.2105 118.728 83.1021C117.539 82.0182 115.592 81.6389 114.024 81.6389Z" fill="white"/>
</g>
</g>
<defs>
<linearGradient id="paint0_linear_863_120797" x1="192" y1="-0.000765816" x2="-17.6528" y2="21.7357" gradientUnits="userSpaceOnUse">
<stop stop-color="#00A9EE"/>
<stop offset="1" stop-color="#0073A1"/>
</linearGradient>
<linearGradient id="paint1_linear_863_120797" x1="9.60046" y1="182.401" x2="198.288" y2="162.838" gradientUnits="userSpaceOnUse">
<stop stop-color="#00A9EE"/>
<stop offset="1" stop-color="#0073A1"/>
</linearGradient>
<linearGradient id="paint2_linear_863_120797" x1="172.8" y1="19.1993" x2="5.07793" y2="36.5885" gradientUnits="userSpaceOnUse">
<stop stop-color="#00A9EE"/>
<stop offset="1" stop-color="#0073A1"/>
</linearGradient>
<linearGradient id="paint3_linear_863_120797" x1="36.7057" y1="43.6235" x2="152.329" y2="147.388" gradientUnits="userSpaceOnUse">
<stop stop-color="#00E599"/>
<stop offset="1" stop-color="#00AF92"/>
</linearGradient>
<linearGradient id="paint4_linear_863_120797" x1="27.6603" y1="15.0974" x2="107.365" y2="120.126" gradientUnits="userSpaceOnUse">
<stop stop-color="#00B3EE"/>
<stop offset="1" stop-color="#009FEE"/>
</linearGradient>
<clipPath id="clip0_863_120797">
<rect width="134.4" height="134.4" fill="white" transform="translate(28.7998 28.7999)"/>
</clipPath>
</defs>
</svg>
