<svg width="192" height="192" viewBox="0 0 192 192" fill="none" xmlns="http://www.w3.org/2000/svg">
<path d="M192 96C192 42.9797 149.02 0 95.9985 0C42.9801 0 0 42.9797 0 96C0 149.017 42.9801 192 95.9985 192C149.02 192 192 149.017 192 96Z" fill="url(#paint0_linear_863_120700)"/>
<path d="M9.60037 96C9.60038 143.719 48.284 182.4 96.0019 182.4C143.72 182.4 182.4 143.719 182.4 96C182.4 48.2815 143.72 9.60002 96.0019 9.60003C48.2839 9.60003 9.60037 48.2815 9.60037 96V96Z" fill="url(#paint1_linear_863_120700)"/>
<path d="M172.8 96C172.8 53.5837 138.416 19.2 95.999 19.2C53.5843 19.2 19.2002 53.5837 19.2002 96C19.2002 138.413 53.5843 172.8 95.999 172.8C138.416 172.8 172.8 138.413 172.8 96Z" fill="url(#paint2_linear_863_120700)"/>
<path d="M172.8 96C172.8 53.5837 138.416 19.2 95.999 19.2C53.5843 19.2 19.2002 53.5837 19.2002 96C19.2002 138.413 53.5843 172.8 95.999 172.8C138.416 172.8 172.8 138.413 172.8 96Z" fill="white" fill-opacity="0.64"/>
<mask id="mask0_863_120700" style="mask-type:alpha" maskUnits="userSpaceOnUse" x="28" y="28" width="136" height="136">
<path d="M163.2 95.9999C163.2 58.888 133.112 28.7999 95.999 28.7999C58.8882 28.7999 28.8003 58.888 28.8003 95.9999C28.8003 133.112 58.8882 163.2 95.999 163.2C133.112 163.2 163.2 133.112 163.2 95.9999Z" fill="url(#paint3_linear_863_120700)"/>
<path d="M163.2 95.9999C163.2 58.888 133.112 28.7999 95.999 28.7999C58.8882 28.7999 28.8003 58.888 28.8003 95.9999C28.8003 133.112 58.8882 163.2 95.999 163.2C133.112 163.2 163.2 133.112 163.2 95.9999Z" fill="white"/>
</mask>
<g mask="url(#mask0_863_120700)">
<g clip-path="url(#clip0_863_120700)">
<rect width="134.4" height="134.4" transform="translate(28.8008 28.7999)" fill="white"/>
<path d="M96.0013 163.2C133.115 163.2 163.201 133.113 163.201 95.9998C163.201 58.8863 133.115 28.7998 96.0013 28.7998C58.8877 28.7998 28.8013 58.8863 28.8013 95.9998C28.8013 133.113 58.8877 163.2 96.0013 163.2Z" fill="white"/>
<g clip-path="url(#clip1_863_120700)">
<path fill-rule="evenodd" clip-rule="evenodd" d="M67.0858 63.0222L50.6209 97.2316C50.5583 97.3589 50.5384 97.5026 50.5643 97.6418C50.5901 97.781 50.6603 97.9084 50.7646 98.0053L95.2322 140.154C95.3585 140.274 95.5267 140.341 95.7017 140.341C95.8768 140.341 96.045 140.274 96.1713 140.154L140.639 98.0079C140.743 97.911 140.813 97.7836 140.839 97.6444C140.865 97.5052 140.845 97.3615 140.783 97.2342L124.318 63.0249C124.265 62.91 124.179 62.8127 124.072 62.7445C123.964 62.6764 123.839 62.6403 123.711 62.6407H67.6977C67.5693 62.6391 67.4433 62.6743 67.3347 62.742C67.2261 62.8097 67.1397 62.907 67.0858 63.0222Z" fill="#50AF95"/>
<path fill-rule="evenodd" clip-rule="evenodd" d="M101.415 100.745C101.096 100.768 99.4464 100.866 95.7671 100.866C92.8408 100.866 90.763 100.779 90.0341 100.745C78.725 100.253 70.2837 98.3053 70.2837 95.9738C70.2837 93.6423 78.725 91.6976 90.0341 91.1976V98.8053C90.7737 98.8579 92.8913 98.9816 95.8177 98.9816C99.3293 98.9816 101.088 98.8368 101.404 98.8079V91.2029C112.69 91.7002 121.112 93.6475 121.112 95.9738C121.112 98.3 112.692 100.247 101.404 100.742L101.415 100.745ZM101.415 90.4161V83.6084H117.164V73.2272H74.2849V83.6084H90.0314V90.4134C77.2325 90.995 67.6074 93.5028 67.6074 96.508C67.6074 99.5131 77.2325 102.018 90.0314 102.602V124.418H101.412V102.595C114.182 102.013 123.791 99.5079 123.791 96.5053C123.791 93.5028 114.19 90.9976 101.412 90.4134L101.415 90.4161Z" fill="white"/>
</g>
</g>
</g>
<defs>
<linearGradient id="paint0_linear_863_120700" x1="192" y1="-0.000765816" x2="-17.6528" y2="21.7357" gradientUnits="userSpaceOnUse">
<stop stop-color="#50AF95"/>
<stop offset="1" stop-color="#367765"/>
</linearGradient>
<linearGradient id="paint1_linear_863_120700" x1="9.60046" y1="182.401" x2="198.288" y2="162.838" gradientUnits="userSpaceOnUse">
<stop stop-color="#50AF95"/>
<stop offset="1" stop-color="#367765"/>
</linearGradient>
<linearGradient id="paint2_linear_863_120700" x1="172.8" y1="19.1993" x2="5.07793" y2="36.5885" gradientUnits="userSpaceOnUse">
<stop stop-color="#50AF95"/>
<stop offset="1" stop-color="#367765"/>
</linearGradient>
<linearGradient id="paint3_linear_863_120700" x1="36.7062" y1="43.6235" x2="152.33" y2="147.388" gradientUnits="userSpaceOnUse">
<stop stop-color="#00E599"/>
<stop offset="1" stop-color="#00AF92"/>
</linearGradient>
<clipPath id="clip0_863_120700">
<rect width="134.4" height="134.4" fill="white" transform="translate(28.8008 28.7999)"/>
</clipPath>
<clipPath id="clip1_863_120700">
<rect width="90.3" height="77.7" fill="white" transform="translate(50.5518 62.6405)"/>
</clipPath>
</defs>
</svg>
