<svg width="192" height="192" viewBox="0 0 192 192" fill="none" xmlns="http://www.w3.org/2000/svg">
<path d="M192 96C192 42.9797 149.02 0 95.9985 0C42.9801 0 0 42.9797 0 96C0 149.017 42.9801 192 95.9985 192C149.02 192 192 149.017 192 96Z" fill="url(#paint0_linear_863_121294)"/>
<path d="M9.60037 96C9.60038 143.719 48.284 182.4 96.0019 182.4C143.72 182.4 182.4 143.719 182.4 96C182.4 48.2815 143.72 9.60002 96.0019 9.60003C48.2839 9.60003 9.60037 48.2815 9.60037 96V96Z" fill="url(#paint1_linear_863_121294)"/>
<path d="M172.8 96C172.8 53.5837 138.416 19.2 95.999 19.2C53.5843 19.2 19.2002 53.5837 19.2002 96C19.2002 138.413 53.5843 172.8 95.999 172.8C138.416 172.8 172.8 138.413 172.8 96Z" fill="url(#paint2_linear_863_121294)"/>
<path d="M172.8 96C172.8 53.5837 138.416 19.2 95.999 19.2C53.5843 19.2 19.2002 53.5837 19.2002 96C19.2002 138.413 53.5843 172.8 95.999 172.8C138.416 172.8 172.8 138.413 172.8 96Z" fill="white" fill-opacity="0.64"/>
<mask id="mask0_863_121294" style="mask-type:alpha" maskUnits="userSpaceOnUse" x="28" y="28" width="136" height="136">
<path d="M163.2 95.9999C163.2 58.888 133.112 28.7999 95.9985 28.7999C58.8877 28.7999 28.7998 58.888 28.7998 95.9999C28.7998 133.112 58.8877 163.2 95.9985 163.2C133.112 163.2 163.2 133.112 163.2 95.9999Z" fill="url(#paint3_linear_863_121294)"/>
<path d="M163.2 95.9999C163.2 58.888 133.112 28.7999 95.9985 28.7999C58.8877 28.7999 28.7998 58.888 28.7998 95.9999C28.7998 133.112 58.8877 163.2 95.9985 163.2C133.112 163.2 163.2 133.112 163.2 95.9999Z" fill="white"/>
</mask>
<g mask="url(#mask0_863_121294)">
<g clip-path="url(#clip0_863_121294)">
<rect width="134.4" height="134.4" transform="translate(28.7998 28.7999)" fill="white"/>
<path d="M96.0008 163.2C133.114 163.2 163.201 133.114 163.201 95.9998C163.201 58.8863 133.114 28.7998 96.0008 28.7998C58.8872 28.7998 28.8008 58.8863 28.8008 95.9998C28.8008 133.114 58.8872 163.2 96.0008 163.2Z" fill="white"/>
<path fill-rule="evenodd" clip-rule="evenodd" d="M69.6045 76.2199C69.5687 75.6708 69.5508 75.1112 69.5508 74.542C69.5508 69.9356 70.8865 65.7304 73.1438 62.5475C75.3294 59.4659 78.839 56.7997 83.1862 56.7997C88.1096 56.7997 91.7999 59.7688 94.019 63.025C94.5052 63.738 94.9436 64.4932 95.3315 65.2805C95.7258 64.4898 96.1679 63.7351 96.6556 63.0243C98.963 59.6631 102.701 56.7997 107.499 56.7997C111.724 56.7997 115.193 59.2517 117.4 62.2397C119.618 65.2421 120.926 69.1915 120.969 73.5018C120.998 73.8951 121.016 74.2852 121.024 74.6717C122.428 73.9799 124.006 73.5563 125.735 73.5563C130.195 73.5563 133.548 76.367 135.529 79.3246C137.564 82.3644 138.713 86.2751 138.713 90.3129C138.713 94.3643 137.555 98.2094 135.444 101.177C133.455 103.974 130.311 106.336 126.349 106.56C128.45 111.586 128.504 116.853 126.724 121.377C124.345 127.425 118.711 131.876 111.442 131.876C108.526 131.876 106.258 131.585 104.322 131.056C102.415 130.536 101.031 129.833 100.051 129.336L99.9857 129.303C99.0848 128.845 98.6144 128.618 97.998 128.442C97.4011 128.271 96.4676 128.097 94.8496 128.097C94.7472 128.097 94.2858 128.147 93.2636 128.635C92.2524 129.117 91.1484 129.797 89.7067 130.694C89.5944 130.764 89.4783 130.837 89.3591 130.911C87.0612 132.346 83.6041 134.505 79.896 135.057C77.7331 135.379 75.3718 135.195 73.0271 134.097C70.732 133.022 68.8304 131.249 67.2372 129.007C64.1139 124.614 63.556 119.731 64.5321 115.009C64.9858 112.815 65.7705 110.637 66.7755 108.5C66.4456 108.532 66.1111 108.548 65.7724 108.548C61.286 108.548 58.0224 105.754 56.1351 102.734C54.2372 99.6978 53.2871 95.8632 53.2871 91.9792C53.2871 88.0932 54.2383 84.2738 56.1533 81.2535C58.0678 78.2336 61.3378 75.5277 65.7724 75.5277C67.1218 75.5277 68.4063 75.7811 69.6045 76.2199Z" fill="#2B2E34"/>
<path fill-rule="evenodd" clip-rule="evenodd" d="M83.1877 85.878C89.4304 85.878 92.2229 80.7123 92.2229 74.5427C92.2229 68.3731 88.4445 62.0574 83.1877 62.0574C79.0142 62.0574 74.8095 67.3144 74.8095 74.5427C74.8095 82.4282 79.0142 85.878 83.1877 85.878ZM74.4791 91.9801C74.4791 98.1494 69.9458 103.292 65.7723 103.292C61.5987 103.292 58.5439 98.1494 58.5439 91.9801C58.5439 85.8103 61.5987 80.7854 65.7723 80.7854C69.9458 80.7854 74.4791 85.8103 74.4791 91.9801ZM111.443 126.62C106.314 126.62 104.299 125.596 102.365 124.615C100.583 123.711 98.8699 122.841 94.8505 122.841C92.3783 122.841 89.6945 124.511 86.9299 126.232C81.7954 129.427 76.381 132.797 71.5229 125.962C67.2685 119.977 69.7161 112.642 74.973 104.77C81.007 95.7349 87.1299 88.3481 94.3581 87.8494C104.215 87.1695 112.593 95.5705 119.329 104.77C126.665 114.791 121.3 126.62 111.443 126.62ZM115.714 73.7213C116.371 81.6066 111.674 86.0423 107.5 86.0423C103.327 86.0423 98.3003 81.5336 98.3003 75.3641C98.3003 68.1358 102.407 62.0574 107.5 62.0574C111.674 62.0574 115.714 66.9858 115.714 73.7213ZM125.735 101.32C129.909 101.32 133.456 96.483 133.456 90.3137C133.456 84.1439 129.909 78.814 125.735 78.814C121.562 78.814 117.686 84.1439 117.686 90.3137C117.686 96.483 121.562 101.32 125.735 101.32Z" fill="#DA652C"/>
</g>
</g>
<defs>
<linearGradient id="paint0_linear_863_121294" x1="192" y1="-0.000765816" x2="-17.6528" y2="21.7357" gradientUnits="userSpaceOnUse">
<stop stop-color="#DA652C"/>
<stop offset="1" stop-color="#99490E"/>
<stop offset="1" stop-color="#94451E"/>
</linearGradient>
<linearGradient id="paint1_linear_863_121294" x1="9.60046" y1="182.401" x2="198.288" y2="162.838" gradientUnits="userSpaceOnUse">
<stop stop-color="#DA652C"/>
<stop offset="1" stop-color="#99490E"/>
<stop offset="1" stop-color="#94451E"/>
</linearGradient>
<linearGradient id="paint2_linear_863_121294" x1="172.8" y1="19.1993" x2="5.07793" y2="36.5885" gradientUnits="userSpaceOnUse">
<stop stop-color="#DA652C"/>
<stop offset="1" stop-color="#99490E"/>
<stop offset="1" stop-color="#94451E"/>
</linearGradient>
<linearGradient id="paint3_linear_863_121294" x1="36.7057" y1="43.6235" x2="152.329" y2="147.388" gradientUnits="userSpaceOnUse">
<stop stop-color="#00E599"/>
<stop offset="1" stop-color="#00AF92"/>
</linearGradient>
<clipPath id="clip0_863_121294">
<rect width="134.4" height="134.4" fill="white" transform="translate(28.7998 28.7999)"/>
</clipPath>
</defs>
</svg>
