<svg width="192" height="192" viewBox="0 0 192 192" fill="none" xmlns="http://www.w3.org/2000/svg">
<path d="M192 96C192 42.9797 149.02 0 95.9985 0C42.9801 0 0 42.9797 0 96C0 149.017 42.9801 192 95.9985 192C149.02 192 192 149.017 192 96Z" fill="url(#paint0_linear_863_121317)"/>
<path d="M9.60037 96C9.60038 143.719 48.284 182.4 96.0019 182.4C143.72 182.4 182.4 143.719 182.4 96C182.4 48.2815 143.72 9.60002 96.0019 9.60003C48.2839 9.60003 9.60037 48.2815 9.60037 96V96Z" fill="url(#paint1_linear_863_121317)"/>
<path d="M172.8 96C172.8 53.5837 138.416 19.2 95.999 19.2C53.5843 19.2 19.2002 53.5837 19.2002 96C19.2002 138.413 53.5843 172.8 95.999 172.8C138.416 172.8 172.8 138.413 172.8 96Z" fill="url(#paint2_linear_863_121317)"/>
<path d="M172.8 96C172.8 53.5837 138.416 19.2 95.999 19.2C53.5843 19.2 19.2002 53.5837 19.2002 96C19.2002 138.413 53.5843 172.8 95.999 172.8C138.416 172.8 172.8 138.413 172.8 96Z" fill="white" fill-opacity="0.64"/>
<mask id="mask0_863_121317" style="mask-type:alpha" maskUnits="userSpaceOnUse" x="28" y="28" width="136" height="136">
<path d="M163.2 95.9999C163.2 58.888 133.112 28.7999 95.9985 28.7999C58.8877 28.7999 28.7998 58.888 28.7998 95.9999C28.7998 133.112 58.8877 163.2 95.9985 163.2C133.112 163.2 163.2 133.112 163.2 95.9999Z" fill="url(#paint3_linear_863_121317)"/>
<path d="M163.2 95.9999C163.2 58.888 133.112 28.7999 95.9985 28.7999C58.8877 28.7999 28.7998 58.888 28.7998 95.9999C28.7998 133.112 58.8877 163.2 95.9985 163.2C133.112 163.2 163.2 133.112 163.2 95.9999Z" fill="white"/>
</mask>
<g mask="url(#mask0_863_121317)">
<g clip-path="url(#clip0_863_121317)">
<rect width="134.4" height="134.4" transform="translate(28.7998 28.7999)" fill="white"/>
<rect x="28.8008" y="28.7998" width="134.4" height="134.4" rx="67.2" fill="white"/>
<path fill-rule="evenodd" clip-rule="evenodd" d="M96.0012 152.861C127.405 152.861 152.863 127.404 152.863 95.9998C152.863 64.5961 127.405 39.1383 96.0012 39.1383C64.5974 39.1383 39.1396 64.5961 39.1396 95.9998C39.1396 127.404 64.5974 152.861 96.0012 152.861ZM93.7927 59.9055V49.4775H102.157V60.059C105.131 60.4677 107.833 61.2758 110.262 62.4834C113.933 64.3088 116.773 66.9491 118.782 70.4043C120.825 73.8269 121.847 77.9666 121.847 82.8235H106.209C106.209 79.0097 105.378 76.1901 103.716 74.3647C102.053 72.5068 99.8711 71.5778 97.1696 71.5778C95.1954 71.5778 93.5849 71.9363 92.3381 72.6534C91.0912 73.3706 90.1734 74.3484 89.5846 75.5871C88.9958 76.8258 88.7014 78.2111 88.7014 79.7431C88.7014 81.3078 89.0131 82.6768 89.6366 83.8503C90.26 84.9911 91.3337 86.0505 92.8576 87.0284C94.3815 88.0063 96.4769 89.0005 99.1438 90.011C103.612 91.706 107.543 93.5151 110.937 95.4383C114.366 97.3614 117.033 99.7084 118.938 102.479C120.877 105.25 121.847 108.77 121.847 113.04C121.847 117.278 120.79 120.896 118.678 123.895C116.565 126.861 113.638 129.127 109.898 130.691C107.263 131.77 104.319 132.469 101.066 132.788V142.524H92.7017V132.776C90.872 132.584 89.0537 132.264 87.2468 131.816C84.095 131.001 81.2203 129.681 78.6227 127.855C76.0598 126.03 73.999 123.618 72.4404 120.619C70.9165 117.587 70.1545 113.855 70.1545 109.422H85.8441C85.8441 111.671 86.1558 113.562 86.7792 115.094C87.4026 116.593 88.2339 117.799 89.2729 118.712C90.3119 119.592 91.4722 120.228 92.7537 120.619C94.0698 120.977 95.4206 121.157 96.806 121.157C98.884 121.157 100.616 120.814 102.001 120.13C103.387 119.445 104.408 118.5 105.066 117.294C105.759 116.055 106.105 114.67 106.105 113.138C106.105 111.345 105.759 109.846 105.066 108.64C104.408 107.401 103.335 106.309 101.845 105.364C100.356 104.386 98.3472 103.457 95.8189 102.577C91.2817 100.914 87.2987 99.1542 83.8699 97.2962C80.4411 95.4057 77.7742 93.075 75.8693 90.3043C73.9644 87.5337 73.0119 83.997 73.0119 79.6942C73.0119 75.6197 74.0336 72.0993 76.0771 69.133C78.1205 66.1342 80.9779 63.8198 84.6492 62.19C87.3807 60.9774 90.4285 60.2159 93.7927 59.9055Z" fill="#D9D9D9"/>
<path fill-rule="evenodd" clip-rule="evenodd" d="M96.0012 152.861C127.405 152.861 152.863 127.404 152.863 95.9998C152.863 64.5961 127.405 39.1383 96.0012 39.1383C64.5974 39.1383 39.1396 64.5961 39.1396 95.9998C39.1396 127.404 64.5974 152.861 96.0012 152.861ZM93.7927 59.9055V49.4775H102.157V60.059C105.131 60.4677 107.833 61.2758 110.262 62.4834C113.933 64.3088 116.773 66.9491 118.782 70.4043C120.825 73.8269 121.847 77.9666 121.847 82.8235H106.209C106.209 79.0097 105.378 76.1901 103.716 74.3647C102.053 72.5068 99.8711 71.5778 97.1696 71.5778C95.1954 71.5778 93.5849 71.9363 92.3381 72.6534C91.0912 73.3706 90.1734 74.3484 89.5846 75.5871C88.9958 76.8258 88.7014 78.2111 88.7014 79.7431C88.7014 81.3078 89.0131 82.6768 89.6366 83.8503C90.26 84.9911 91.3337 86.0505 92.8576 87.0284C94.3815 88.0063 96.4769 89.0005 99.1438 90.011C103.612 91.706 107.543 93.5151 110.937 95.4383C114.366 97.3614 117.033 99.7084 118.938 102.479C120.877 105.25 121.847 108.77 121.847 113.04C121.847 117.278 120.79 120.896 118.678 123.895C116.565 126.861 113.638 129.127 109.898 130.691C107.263 131.77 104.319 132.469 101.066 132.788V142.524H92.7017V132.776C90.872 132.584 89.0537 132.264 87.2468 131.816C84.095 131.001 81.2203 129.681 78.6227 127.855C76.0598 126.03 73.999 123.618 72.4404 120.619C70.9165 117.587 70.1545 113.855 70.1545 109.422H85.8441C85.8441 111.671 86.1558 113.562 86.7792 115.094C87.4026 116.593 88.2339 117.799 89.2729 118.712C90.3119 119.592 91.4722 120.228 92.7537 120.619C94.0698 120.977 95.4206 121.157 96.806 121.157C98.884 121.157 100.616 120.814 102.001 120.13C103.387 119.445 104.408 118.5 105.066 117.294C105.759 116.055 106.105 114.67 106.105 113.138C106.105 111.345 105.759 109.846 105.066 108.64C104.408 107.401 103.335 106.309 101.845 105.364C100.356 104.386 98.3472 103.457 95.8189 102.577C91.2817 100.914 87.2987 99.1542 83.8699 97.2962C80.4411 95.4057 77.7742 93.075 75.8693 90.3043C73.9644 87.5337 73.0119 83.997 73.0119 79.6942C73.0119 75.6197 74.0336 72.0993 76.0771 69.133C78.1205 66.1342 80.9779 63.8198 84.6492 62.19C87.3807 60.9774 90.4285 60.2159 93.7927 59.9055Z" fill="url(#paint4_linear_863_121317)"/>
</g>
</g>
<defs>
<linearGradient id="paint0_linear_863_121317" x1="192" y1="-0.000765816" x2="-17.6528" y2="21.7357" gradientUnits="userSpaceOnUse">
<stop stop-color="#DC42C9"/>
<stop offset="1" stop-color="#952D88"/>
</linearGradient>
<linearGradient id="paint1_linear_863_121317" x1="9.60046" y1="182.401" x2="198.288" y2="162.838" gradientUnits="userSpaceOnUse">
<stop stop-color="#DC42C9"/>
<stop offset="1" stop-color="#952D88"/>
</linearGradient>
<linearGradient id="paint2_linear_863_121317" x1="172.8" y1="19.1993" x2="5.07793" y2="36.5885" gradientUnits="userSpaceOnUse">
<stop stop-color="#DC42C9"/>
<stop offset="1" stop-color="#952D88"/>
</linearGradient>
<linearGradient id="paint3_linear_863_121317" x1="36.7057" y1="43.6235" x2="152.329" y2="147.388" gradientUnits="userSpaceOnUse">
<stop stop-color="#00E599"/>
<stop offset="1" stop-color="#00AF92"/>
</linearGradient>
<linearGradient id="paint4_linear_863_121317" x1="49.4793" y1="95.9999" x2="142.524" y2="95.9999" gradientUnits="userSpaceOnUse">
<stop stop-color="#E96161"/>
<stop offset="0.2" stop-color="#E65B76"/>
<stop offset="0.61" stop-color="#DF4AAC"/>
<stop offset="1" stop-color="#D739E6"/>
</linearGradient>
<clipPath id="clip0_863_121317">
<rect width="134.4" height="134.4" fill="white" transform="translate(28.7998 28.7999)"/>
</clipPath>
</defs>
</svg>
