<svg width="192" height="192" viewBox="0 0 192 192" fill="none" xmlns="http://www.w3.org/2000/svg">
<path d="M192 96C192 42.9797 149.02 0 95.9985 0C42.9801 0 0 42.9797 0 96C0 149.017 42.9801 192 95.9985 192C149.02 192 192 149.017 192 96Z" fill="url(#paint0_linear_863_120678)"/>
<path d="M9.60037 96C9.60038 143.719 48.284 182.4 96.0019 182.4C143.72 182.4 182.4 143.719 182.4 96C182.4 48.2815 143.72 9.60002 96.0019 9.60003C48.2839 9.60003 9.60037 48.2815 9.60037 96V96Z" fill="url(#paint1_linear_863_120678)"/>
<path d="M172.8 96C172.8 53.5837 138.416 19.2 95.999 19.2C53.5843 19.2 19.2002 53.5837 19.2002 96C19.2002 138.413 53.5843 172.8 95.999 172.8C138.416 172.8 172.8 138.413 172.8 96Z" fill="url(#paint2_linear_863_120678)"/>
<path d="M172.8 96C172.8 53.5837 138.416 19.2 95.999 19.2C53.5843 19.2 19.2002 53.5837 19.2002 96C19.2002 138.413 53.5843 172.8 95.999 172.8C138.416 172.8 172.8 138.413 172.8 96Z" fill="white" fill-opacity="0.64"/>
<mask id="mask0_863_120678" style="mask-type:alpha" maskUnits="userSpaceOnUse" x="28" y="28" width="136" height="136">
<path d="M163.2 95.9999C163.2 58.888 133.112 28.7999 95.999 28.7999C58.8882 28.7999 28.8003 58.888 28.8003 95.9999C28.8003 133.112 58.8882 163.2 95.999 163.2C133.112 163.2 163.2 133.112 163.2 95.9999Z" fill="url(#paint3_linear_863_120678)"/>
<path d="M163.2 95.9999C163.2 58.888 133.112 28.7999 95.999 28.7999C58.8882 28.7999 28.8003 58.888 28.8003 95.9999C28.8003 133.112 58.8882 163.2 95.999 163.2C133.112 163.2 163.2 133.112 163.2 95.9999Z" fill="white"/>
</mask>
<g mask="url(#mask0_863_120678)">
<g clip-path="url(#clip0_863_120678)">
<rect width="134.4" height="134.4" transform="translate(28.8008 28.7999)" fill="white"/>
<path d="M96.0013 163.2C133.115 163.2 163.201 133.113 163.201 95.9998C163.201 58.8863 133.115 28.7998 96.0013 28.7998C58.8877 28.7998 28.8013 58.8863 28.8013 95.9998C28.8013 133.113 58.8877 163.2 96.0013 163.2Z" fill="white"/>
<path d="M58.2012 68.8465L97.9537 54.5249L133.611 67.0637L133.801 124.683L97.8406 111.604V137.475L58.2181 123.494L58.2012 68.8465ZM97.9678 58.3745L61.8869 71.3737L61.903 120.947L94.1536 132.327V80.1574L126.382 68.3666L97.9678 58.3745ZM129.937 70.9263L97.8406 82.6701V107.745L130.098 119.475L129.937 70.9263Z" fill="#01E397"/>
</g>
</g>
<defs>
<linearGradient id="paint0_linear_863_120678" x1="192" y1="-0.000765816" x2="-17.6528" y2="21.7357" gradientUnits="userSpaceOnUse">
<stop stop-color="#01E397"/>
<stop offset="1" stop-color="#019A66"/>
</linearGradient>
<linearGradient id="paint1_linear_863_120678" x1="9.60046" y1="182.401" x2="198.288" y2="162.838" gradientUnits="userSpaceOnUse">
<stop stop-color="#01E397"/>
<stop offset="1" stop-color="#019A66"/>
</linearGradient>
<linearGradient id="paint2_linear_863_120678" x1="172.8" y1="19.1993" x2="5.07793" y2="36.5885" gradientUnits="userSpaceOnUse">
<stop stop-color="#01E397"/>
<stop offset="1" stop-color="#019A66"/>
</linearGradient>
<linearGradient id="paint3_linear_863_120678" x1="36.7062" y1="43.6235" x2="152.33" y2="147.388" gradientUnits="userSpaceOnUse">
<stop stop-color="#00E599"/>
<stop offset="1" stop-color="#00AF92"/>
</linearGradient>
<clipPath id="clip0_863_120678">
<rect width="134.4" height="134.4" fill="white" transform="translate(28.8008 28.7999)"/>
</clipPath>
</defs>
</svg>
