<svg width="192" height="192" viewBox="0 0 192 192" fill="none" xmlns="http://www.w3.org/2000/svg">
<path d="M192 96C192 42.9797 149.02 0 95.9985 0C42.9801 0 0 42.9797 0 96C0 149.017 42.9801 192 95.9985 192C149.02 192 192 149.017 192 96Z" fill="url(#paint0_linear_863_120728)"/>
<path d="M9.60037 96C9.60038 143.719 48.284 182.4 96.0019 182.4C143.72 182.4 182.4 143.719 182.4 96C182.4 48.2815 143.72 9.60002 96.0019 9.60003C48.2839 9.60003 9.60037 48.2815 9.60037 96V96Z" fill="url(#paint1_linear_863_120728)"/>
<path d="M172.8 96C172.8 53.5837 138.416 19.2 95.999 19.2C53.5843 19.2 19.2002 53.5837 19.2002 96C19.2002 138.413 53.5843 172.8 95.999 172.8C138.416 172.8 172.8 138.413 172.8 96Z" fill="url(#paint2_linear_863_120728)"/>
<path d="M172.8 96C172.8 53.5837 138.416 19.2 95.999 19.2C53.5843 19.2 19.2002 53.5837 19.2002 96C19.2002 138.413 53.5843 172.8 95.999 172.8C138.416 172.8 172.8 138.413 172.8 96Z" fill="white" fill-opacity="0.64"/>
<mask id="mask0_863_120728" style="mask-type:alpha" maskUnits="userSpaceOnUse" x="28" y="28" width="136" height="136">
<path d="M163.2 96C163.2 58.8881 133.112 28.8 95.9985 28.8C58.8877 28.8 28.7998 58.8881 28.7998 96C28.7998 133.112 58.8877 163.2 95.9985 163.2C133.112 163.2 163.2 133.112 163.2 96Z" fill="url(#paint3_linear_863_120728)"/>
<path d="M163.2 96C163.2 58.8881 133.112 28.8 95.9985 28.8C58.8877 28.8 28.7998 58.8881 28.7998 96C28.7998 133.112 58.8877 163.2 95.9985 163.2C133.112 163.2 163.2 133.112 163.2 96Z" fill="white"/>
</mask>
<g mask="url(#mask0_863_120728)">
<g clip-path="url(#clip0_863_120728)">
<rect width="134.4" height="134.4" transform="translate(28.7998 28.8)" fill="white"/>
<path d="M95.9998 163.2C133.113 163.2 163.2 133.114 163.2 96C163.2 58.8865 133.113 28.8 95.9998 28.8C58.8863 28.8 28.7998 58.8865 28.7998 96C28.7998 133.114 58.8863 163.2 95.9998 163.2Z" fill="white"/>
<path opacity="0.25" d="M125.263 107.861L101.054 84.0744C99.6539 82.6987 97.8164 82.0179 95.9853 82.0314C94.1543 82.0231 92.3186 82.7091 90.9224 84.0888L65.8999 108.815L56.7242 117.866L73.3934 134.244L83.5894 144.262L96.0508 131.948L108.547 144.227L108.813 143.964L135.337 117.754L125.263 107.861Z" fill="#122236"/>
<path opacity="0.5" d="M125.205 74.1119L100.995 49.8411C99.5945 48.4373 97.7569 47.7426 95.9259 47.7564C94.0949 47.7478 92.2592 48.4477 90.863 49.8555L65.8412 75.0833L56.6769 84.3231L73.3466 101.035L83.5428 111.257L96.0039 98.693L108.501 111.221L108.767 110.953L135.29 84.2113L125.205 74.1119Z" fill="#122236"/>
<path d="M125.225 90.6089L101.015 66.338C99.615 64.9343 97.7775 64.2396 95.9464 64.2533C94.1154 64.2448 92.2798 64.9447 90.8835 66.3524L65.8617 91.5802L56.6974 100.82L73.3671 117.532L83.5634 127.754L96.0244 115.19L108.521 127.718L108.787 127.45L135.31 100.708L125.225 90.6089ZM91.4187 99.3147L83.3957 107.398L76.8001 100.786L95.9598 81.4684L115.174 100.731L108.476 107.485L100.313 99.3021C97.8571 96.8343 93.8732 96.84 91.4187 99.3147Z" fill="#122236"/>
</g>
</g>
<defs>
<linearGradient id="paint0_linear_863_120728" x1="192" y1="-0.000765816" x2="-17.6528" y2="21.7357" gradientUnits="userSpaceOnUse">
<stop stop-color="#6B7581"/>
<stop offset="1" stop-color="#494F58"/>
</linearGradient>
<linearGradient id="paint1_linear_863_120728" x1="9.60046" y1="182.401" x2="198.288" y2="162.838" gradientUnits="userSpaceOnUse">
<stop stop-color="#6B7581"/>
<stop offset="1" stop-color="#494F58"/>
</linearGradient>
<linearGradient id="paint2_linear_863_120728" x1="172.8" y1="19.1993" x2="5.07793" y2="36.5885" gradientUnits="userSpaceOnUse">
<stop stop-color="#6B7581"/>
<stop offset="1" stop-color="#494F58"/>
</linearGradient>
<linearGradient id="paint3_linear_863_120728" x1="36.7057" y1="43.6236" x2="152.329" y2="147.388" gradientUnits="userSpaceOnUse">
<stop stop-color="#00E599"/>
<stop offset="1" stop-color="#00AF92"/>
</linearGradient>
<clipPath id="clip0_863_120728">
<rect width="134.4" height="134.4" fill="white" transform="translate(28.7998 28.8)"/>
</clipPath>
</defs>
</svg>
