<svg width="192" height="192" viewBox="0 0 192 192" fill="none" xmlns="http://www.w3.org/2000/svg">
<path d="M192 96C192 42.9797 149.02 0 95.9985 0C42.9801 0 0 42.9797 0 96C0 149.017 42.9801 192 95.9985 192C149.02 192 192 149.017 192 96Z" fill="url(#paint0_linear_863_120786)"/>
<path d="M9.60037 96C9.60038 143.719 48.284 182.4 96.0019 182.4C143.72 182.4 182.4 143.719 182.4 96C182.4 48.2815 143.72 9.60002 96.0019 9.60003C48.2839 9.60003 9.60037 48.2815 9.60037 96V96Z" fill="url(#paint1_linear_863_120786)"/>
<path d="M172.8 96C172.8 53.5837 138.416 19.2 95.999 19.2C53.5843 19.2 19.2002 53.5837 19.2002 96C19.2002 138.413 53.5843 172.8 95.999 172.8C138.416 172.8 172.8 138.413 172.8 96Z" fill="url(#paint2_linear_863_120786)"/>
<path d="M172.8 96C172.8 53.5837 138.416 19.2 95.999 19.2C53.5843 19.2 19.2002 53.5837 19.2002 96C19.2002 138.413 53.5843 172.8 95.999 172.8C138.416 172.8 172.8 138.413 172.8 96Z" fill="white" fill-opacity="0.64"/>
<mask id="mask0_863_120786" style="mask-type:alpha" maskUnits="userSpaceOnUse" x="28" y="28" width="136" height="136">
<path d="M163.2 96C163.2 58.8881 133.112 28.8 95.9985 28.8C58.8877 28.8 28.7998 58.8881 28.7998 96C28.7998 133.112 58.8877 163.2 95.9985 163.2C133.112 163.2 163.2 133.112 163.2 96Z" fill="url(#paint3_linear_863_120786)"/>
<path d="M163.2 96C163.2 58.8881 133.112 28.8 95.9985 28.8C58.8877 28.8 28.7998 58.8881 28.7998 96C28.7998 133.112 58.8877 163.2 95.9985 163.2C133.112 163.2 163.2 133.112 163.2 96Z" fill="white"/>
</mask>
<g mask="url(#mask0_863_120786)">
<g clip-path="url(#clip0_863_120786)">
<rect width="134.4" height="134.4" transform="translate(28.7998 28.8)" fill="white"/>
<path d="M95.9998 163.2C133.113 163.2 163.2 133.114 163.2 96C163.2 58.8865 133.113 28.8 95.9998 28.8C58.8863 28.8 28.7998 58.8865 28.7998 96C28.7998 133.114 58.8863 163.2 95.9998 163.2Z" fill="white"/>
<path fill-rule="evenodd" clip-rule="evenodd" d="M129.601 62.4V129.6H116.46V85.8454L72.8169 129.488L62.5129 119.184L106.156 75.5414H62.4009V62.4H129.601Z" fill="#063C4F"/>
</g>
</g>
<defs>
<linearGradient id="paint0_linear_863_120786" x1="192" y1="-0.000765816" x2="-17.6528" y2="21.7357" gradientUnits="userSpaceOnUse">
<stop stop-color="#063C4F"/>
<stop offset="1" stop-color="#042936"/>
</linearGradient>
<linearGradient id="paint1_linear_863_120786" x1="9.60046" y1="182.401" x2="198.288" y2="162.838" gradientUnits="userSpaceOnUse">
<stop stop-color="#063C4F"/>
<stop offset="1" stop-color="#042936"/>
</linearGradient>
<linearGradient id="paint2_linear_863_120786" x1="172.8" y1="19.1993" x2="5.07793" y2="36.5885" gradientUnits="userSpaceOnUse">
<stop stop-color="#063C4F"/>
<stop offset="1" stop-color="#042936"/>
</linearGradient>
<linearGradient id="paint3_linear_863_120786" x1="36.7057" y1="43.6236" x2="152.329" y2="147.388" gradientUnits="userSpaceOnUse">
<stop stop-color="#00E599"/>
<stop offset="1" stop-color="#00AF92"/>
</linearGradient>
<clipPath id="clip0_863_120786">
<rect width="134.4" height="134.4" fill="white" transform="translate(28.7998 28.8)"/>
</clipPath>
</defs>
</svg>
