<svg width="192" height="192" viewBox="0 0 192 192" fill="none" xmlns="http://www.w3.org/2000/svg">
<path d="M192 96C192 42.9797 149.02 0 95.9985 0C42.9801 0 0 42.9797 0 96C0 149.017 42.9801 192 95.9985 192C149.02 192 192 149.017 192 96Z" fill="url(#paint0_linear_863_120808)"/>
<path d="M9.60037 96C9.60038 143.719 48.284 182.4 96.0019 182.4C143.72 182.4 182.4 143.719 182.4 96C182.4 48.2815 143.72 9.60002 96.0019 9.60003C48.2839 9.60003 9.60037 48.2815 9.60037 96V96Z" fill="url(#paint1_linear_863_120808)"/>
<path d="M172.8 96C172.8 53.5837 138.416 19.2 95.999 19.2C53.5843 19.2 19.2002 53.5837 19.2002 96C19.2002 138.413 53.5843 172.8 95.999 172.8C138.416 172.8 172.8 138.413 172.8 96Z" fill="url(#paint2_linear_863_120808)"/>
<path d="M172.8 96C172.8 53.5837 138.416 19.2 95.999 19.2C53.5843 19.2 19.2002 53.5837 19.2002 96C19.2002 138.413 53.5843 172.8 95.999 172.8C138.416 172.8 172.8 138.413 172.8 96Z" fill="white" fill-opacity="0.32"/>
<mask id="mask0_863_120808" style="mask-type:alpha" maskUnits="userSpaceOnUse" x="28" y="28" width="136" height="136">
<path d="M163.2 95.9999C163.2 58.888 133.112 28.7999 95.9985 28.7999C58.8877 28.7999 28.7998 58.888 28.7998 95.9999C28.7998 133.112 58.8877 163.2 95.9985 163.2C133.112 163.2 163.2 133.112 163.2 95.9999Z" fill="url(#paint3_linear_863_120808)"/>
<path d="M163.2 95.9999C163.2 58.888 133.112 28.7999 95.9985 28.7999C58.8877 28.7999 28.7998 58.888 28.7998 95.9999C28.7998 133.112 58.8877 163.2 95.9985 163.2C133.112 163.2 163.2 133.112 163.2 95.9999Z" fill="white"/>
</mask>
<g mask="url(#mask0_863_120808)">
<g clip-path="url(#clip0_863_120808)">
<rect width="134.4" height="134.4" transform="translate(28.7998 28.7999)" fill="white"/>
<rect width="134.4" height="134.4" transform="translate(28.7998 28.7999)" fill="url(#paint4_linear_863_120808)"/>
<path fill-rule="evenodd" clip-rule="evenodd" d="M92.9827 51.9968V54.6008L92.4677 54.6875C92.1845 54.7351 91.4891 54.8449 90.9226 54.9314C88.2915 55.333 84.5032 56.5804 82.3651 57.7491C77.8204 60.2333 74.2557 64.7765 73.1521 69.4912C72.6285 71.7274 72.7193 75.8061 73.3491 78.3536C74.2413 81.9626 75.8488 84.5313 79.295 87.8542C82.1329 90.5906 86.9763 94.2503 91.5169 97.0892L92.9827 98.0057V114.767C92.9827 123.985 92.9292 131.526 92.8639 131.525C92.4706 131.515 89.6724 131.032 88.4663 130.765C83.2652 129.614 78.9988 126.424 77.1527 122.306C76.2127 120.209 75.5406 117.731 75.3083 115.504L75.1969 114.436H73.9476H72.6982V122.567V130.699L74.798 131.493C80.5133 133.656 85.4434 134.74 91.1999 135.101L92.9827 135.213V138.909V142.606H94.8052H96.6276V138.905V135.204L97.6973 135.094C102.633 134.583 107.38 132.893 110.695 130.465C115.257 127.125 118.24 122.474 119.047 117.443C119.894 112.159 118.63 106.872 115.592 102.993C113.314 100.084 107.799 95.4995 99.6099 89.7059L96.6495 87.6116L96.6385 72.9999L96.6276 58.3881L97.0634 58.4739C97.303 58.5211 97.8558 58.6048 98.2916 58.6602C98.7274 58.7156 99.6544 58.9009 100.352 59.0721C106.591 60.6042 110.15 63.7969 111.965 69.4912C112.511 71.2037 113.037 73.5559 113.186 74.9511C113.393 76.8916 113.303 76.771 114.548 76.771H115.644V68.2429V59.715L114.416 59.2288C112.41 58.435 107.705 56.7246 106.112 56.2102C103.677 55.424 102.535 55.2214 97.5388 54.6894L96.6276 54.5924V51.9925V49.3927H94.8052H92.9827V51.9968ZM92.9827 71.8744C92.9827 82.4727 92.9425 85.1539 92.7846 85.0619C92.6758 84.9984 91.6238 84.238 90.4472 83.3722C87.6845 81.3394 84.81 78.462 83.7311 76.6496C83.3058 75.9353 82.705 74.6198 82.396 73.7265C81.9091 72.3198 81.8245 71.8532 81.7629 70.2384C81.6258 66.6426 82.5245 64.1333 84.7198 61.9829C85.79 60.9346 86.6755 60.3447 88.0395 59.7713C89.2651 59.2562 91.6064 58.6548 92.6262 58.5931L92.9827 58.5716V71.8744ZM99.3164 102.378C104.875 106.376 107.456 108.896 108.827 111.667C109.85 113.735 110.134 114.973 110.132 117.364C110.13 119.611 109.794 121.098 108.835 123.102C108.024 124.796 107.439 125.632 106.037 127.096C104.628 128.57 103.549 129.324 101.744 130.098C100.681 130.554 97.2483 131.528 96.7038 131.528C96.662 131.528 96.6276 124.544 96.6276 116.009C96.6276 103.636 96.6677 100.515 96.8257 100.61C96.9347 100.676 98.0554 101.471 99.3164 102.378Z" fill="white"/>
</g>
</g>
<defs>
<linearGradient id="paint0_linear_863_120808" x1="192" y1="-0.000765816" x2="-17.6528" y2="21.7357" gradientUnits="userSpaceOnUse">
<stop stop-color="#00A9EE"/>
<stop offset="1" stop-color="#0073A1"/>
</linearGradient>
<linearGradient id="paint1_linear_863_120808" x1="9.60046" y1="182.401" x2="198.288" y2="162.838" gradientUnits="userSpaceOnUse">
<stop stop-color="#00A9EE"/>
<stop offset="1" stop-color="#0073A1"/>
</linearGradient>
<linearGradient id="paint2_linear_863_120808" x1="172.8" y1="19.1993" x2="5.07793" y2="36.5885" gradientUnits="userSpaceOnUse">
<stop stop-color="#00A9EE"/>
<stop offset="1" stop-color="#0073A1"/>
</linearGradient>
<linearGradient id="paint3_linear_863_120808" x1="36.7057" y1="43.6235" x2="152.329" y2="147.388" gradientUnits="userSpaceOnUse">
<stop stop-color="#00E599"/>
<stop offset="1" stop-color="#00AF92"/>
</linearGradient>
<linearGradient id="paint4_linear_863_120808" x1="27.6603" y1="15.0974" x2="107.365" y2="120.126" gradientUnits="userSpaceOnUse">
<stop stop-color="#00B3EE"/>
<stop offset="1" stop-color="#009FEE"/>
</linearGradient>
<clipPath id="clip0_863_120808">
<rect width="134.4" height="134.4" fill="white" transform="translate(28.7998 28.7999)"/>
</clipPath>
</defs>
</svg>
