<svg width="192" height="192" viewBox="0 0 192 192" fill="none" xmlns="http://www.w3.org/2000/svg">
<path d="M192 96C192 42.9797 149.02 0 95.9985 0C42.9801 0 0 42.9797 0 96C0 149.017 42.9801 192 95.9985 192C149.02 192 192 149.017 192 96Z" fill="url(#paint0_linear_863_120619)"/>
<path d="M9.60037 96C9.60038 143.719 48.284 182.4 96.0019 182.4C143.72 182.4 182.4 143.719 182.4 96C182.4 48.2815 143.72 9.60002 96.0019 9.60003C48.2839 9.60003 9.60037 48.2815 9.60037 96V96Z" fill="url(#paint1_linear_863_120619)"/>
<path d="M172.8 96C172.8 53.5837 138.416 19.2 95.999 19.2C53.5843 19.2 19.2002 53.5837 19.2002 96C19.2002 138.413 53.5843 172.8 95.999 172.8C138.416 172.8 172.8 138.413 172.8 96Z" fill="url(#paint2_linear_863_120619)"/>
<path d="M172.8 96C172.8 53.5837 138.416 19.2 95.999 19.2C53.5843 19.2 19.2002 53.5837 19.2002 96C19.2002 138.413 53.5843 172.8 95.999 172.8C138.416 172.8 172.8 138.413 172.8 96Z" fill="white" fill-opacity="0.64"/>
<mask id="mask0_863_120619" style="mask-type:alpha" maskUnits="userSpaceOnUse" x="28" y="28" width="136" height="136">
<path d="M163.2 95.9999C163.2 58.888 133.112 28.7999 95.999 28.7999C58.8882 28.7999 28.8003 58.888 28.8003 95.9999C28.8003 133.112 58.8882 163.2 95.999 163.2C133.112 163.2 163.2 133.112 163.2 95.9999Z" fill="url(#paint3_linear_863_120619)"/>
<path d="M163.2 95.9999C163.2 58.888 133.112 28.7999 95.999 28.7999C58.8882 28.7999 28.8003 58.888 28.8003 95.9999C28.8003 133.112 58.8882 163.2 95.999 163.2C133.112 163.2 163.2 133.112 163.2 95.9999Z" fill="white"/>
</mask>
<g mask="url(#mask0_863_120619)">
<g clip-path="url(#clip0_863_120619)">
<rect width="134.4" height="134.4" transform="translate(28.8008 28.7999)" fill="white"/>
<path d="M96.0018 163.2C133.115 163.2 163.202 133.113 163.202 95.9998C163.202 58.8863 133.115 28.7998 96.0018 28.7998C58.8882 28.7998 28.8018 58.8863 28.8018 95.9998C28.8018 133.113 58.8882 163.2 96.0018 163.2Z" fill="white"/>
<mask id="mask1_863_120619" style="mask-type:alpha" maskUnits="userSpaceOnUse" x="60" y="48" width="68" height="96">
<path d="M60.5654 48.3479H127.765V143.548H60.5654V48.3479Z" fill="white"/>
</mask>
<g mask="url(#mask1_863_120619)">
<path fill-rule="evenodd" clip-rule="evenodd" d="M112.365 86.4707C110.192 95.7876 96.7801 91.0544 92.4293 89.8937L96.2665 73.4255C100.617 74.5862 114.628 76.7526 112.366 86.4707H112.365ZM109.981 113.046C107.599 123.289 91.4852 117.752 86.2607 116.364L90.4931 98.2058C95.7172 99.6016 112.471 102.364 109.982 113.046H109.981ZM127.591 86.6192C128.989 76.6158 121.873 71.2386 112.142 67.6517L115.299 54.1013L107.591 52.0459L104.518 65.2396C102.492 64.6987 100.411 64.189 98.3432 63.6839L101.438 50.4033L93.7359 48.3479L90.5775 61.8939C88.9008 61.4852 87.254 61.0814 85.6561 60.6559L85.6651 60.6135L75.0366 57.7729L72.9862 66.5827C72.9862 66.5827 78.7045 67.9856 78.584 68.072C81.705 68.9056 82.2694 71.1167 82.1756 72.8693L78.5798 88.3063L78.5665 88.3658L73.5263 109.991C73.1449 111.006 72.1768 112.529 69.9947 111.95C70.072 112.07 64.393 110.454 64.393 110.454L60.5664 119.896L70.5962 122.572C72.4621 123.073 74.2905 123.597 76.0912 124.089L72.9019 137.795L80.6002 139.851L83.7587 126.29C85.8617 126.901 87.9028 127.465 89.9009 127.996L86.753 141.493L94.4607 143.548L97.6498 129.868C110.792 132.53 120.674 131.457 124.834 118.734C128.186 108.492 124.667 102.584 117.753 98.7307C122.789 97.4878 126.582 93.943 127.594 86.6203L127.591 86.6185L127.591 86.6192Z" fill="#F7931A"/>
</g>
</g>
</g>
<defs>
<linearGradient id="paint0_linear_863_120619" x1="192" y1="-0.000765816" x2="-17.6528" y2="21.7357" gradientUnits="userSpaceOnUse">
<stop stop-color="#F7931A"/>
<stop offset="1" stop-color="#A86412"/>
</linearGradient>
<linearGradient id="paint1_linear_863_120619" x1="9.60046" y1="182.401" x2="198.288" y2="162.838" gradientUnits="userSpaceOnUse">
<stop stop-color="#F7931A"/>
<stop offset="1" stop-color="#A86412"/>
</linearGradient>
<linearGradient id="paint2_linear_863_120619" x1="172.8" y1="19.1993" x2="5.07793" y2="36.5885" gradientUnits="userSpaceOnUse">
<stop stop-color="#F7931A"/>
<stop offset="1" stop-color="#A86412"/>
</linearGradient>
<linearGradient id="paint3_linear_863_120619" x1="36.7062" y1="43.6235" x2="152.33" y2="147.388" gradientUnits="userSpaceOnUse">
<stop stop-color="#00E599"/>
<stop offset="1" stop-color="#00AF92"/>
</linearGradient>
<clipPath id="clip0_863_120619">
<rect width="134.4" height="134.4" fill="white" transform="translate(28.8008 28.7999)"/>
</clipPath>
</defs>
</svg>
